solid ASCII
  facet normal -1.000000e+00 0.000000e+00 0.000000e+00
    outer loop
      vertex   6.365000e+01 1.465000e+02 2.500000e+00
      vertex   6.365000e+01 1.465000e+02 4.000000e+00
      vertex   6.365000e+01 1.490000e+02 2.500000e+00
    endloop
  endfacet
  facet normal -1.000000e+00 0.000000e+00 0.000000e+00
    outer loop
      vertex   6.365000e+01 1.490000e+02 2.500000e+00
      vertex   6.365000e+01 1.465000e+02 4.000000e+00
      vertex   6.365000e+01 1.490000e+02 4.000000e+00
    endloop
  endfacet
  facet normal 0.000000e+00 1.000000e+00 0.000000e+00
    outer loop
      vertex   6.365000e+01 1.465000e+02 4.000000e+00
      vertex   6.365000e+01 1.465000e+02 2.500000e+00
      vertex   5.395000e+01 1.465000e+02 4.000000e+00
    endloop
  endfacet
  facet normal 0.000000e+00 1.000000e+00 0.000000e+00
    outer loop
      vertex   5.395000e+01 1.465000e+02 4.000000e+00
      vertex   6.365000e+01 1.465000e+02 2.500000e+00
      vertex   5.395000e+01 1.465000e+02 2.500000e+00
    endloop
  endfacet
  facet normal 1.000000e+00 0.000000e+00 0.000000e+00
    outer loop
      vertex   5.395000e+01 1.465000e+02 2.500000e+00
      vertex   5.395000e+01 1.490000e+02 2.500000e+00
      vertex   5.395000e+01 1.465000e+02 4.000000e+00
    endloop
  endfacet
  facet normal 1.000000e+00 -0.000000e+00 0.000000e+00
    outer loop
      vertex   5.395000e+01 1.465000e+02 4.000000e+00
      vertex   5.395000e+01 1.490000e+02 2.500000e+00
      vertex   5.395000e+01 1.490000e+02 7.500000e+00
    endloop
  endfacet
  facet normal 1.000000e+00 0.000000e+00 -0.000000e+00
    outer loop
      vertex   5.395000e+01 1.465000e+02 4.000000e+00
      vertex   5.395000e+01 1.490000e+02 7.500000e+00
      vertex   5.395000e+01 1.430000e+02 7.500000e+00
    endloop
  endfacet
  facet normal 1.000000e+00 0.000000e+00 0.000000e+00
    outer loop
      vertex   5.395000e+01 1.430000e+02 7.500000e+00
      vertex   5.395000e+01 1.430000e+02 4.000000e+00
      vertex   5.395000e+01 1.465000e+02 4.000000e+00
    endloop
  endfacet
  facet normal -0.000000e+00 -0.000000e+00 -1.000000e+00
    outer loop
      vertex   5.395000e+01 1.490000e+02 2.500000e+00
      vertex   5.395000e+01 1.465000e+02 2.500000e+00
      vertex   5.000000e+01 1.490000e+02 2.500000e+00
    endloop
  endfacet
  facet normal -2.444079e-17 -3.861645e-17 -1.000000e+00
    outer loop
      vertex   5.000000e+01 1.490000e+02 2.500000e+00
      vertex   5.395000e+01 1.465000e+02 2.500000e+00
      vertex   5.000000e+01 1.375000e+02 2.500000e+00
    endloop
  endfacet
  facet normal 0.000000e+00 -4.934323e-17 -1.000000e+00
    outer loop
      vertex   5.000000e+01 1.375000e+02 2.500000e+00
      vertex   5.395000e+01 1.465000e+02 2.500000e+00
      vertex   6.365000e+01 1.465000e+02 2.500000e+00
    endloop
  endfacet
  facet normal -4.878691e-17 2.465022e-17 -1.000000e+00
    outer loop
      vertex   5.000000e+01 1.375000e+02 2.500000e+00
      vertex   6.365000e+01 1.465000e+02 2.500000e+00
      vertex   5.405000e+01 1.275000e+02 2.500000e+00
    endloop
  endfacet
  facet normal 0.000000e+00 0.000000e+00 -1.000000e+00
    outer loop
      vertex   5.405000e+01 1.275000e+02 2.500000e+00
      vertex   6.365000e+01 1.465000e+02 2.500000e+00
      vertex   6.355000e+01 1.275000e+02 2.500000e+00
    endloop
  endfacet
  facet normal 0.000000e+00 0.000000e+00 -1.000000e+00
    outer loop
      vertex   6.355000e+01 1.275000e+02 2.500000e+00
      vertex   6.365000e+01 1.465000e+02 2.500000e+00
      vertex   7.250000e+01 1.490000e+02 2.500000e+00
    endloop
  endfacet
  facet normal 0.000000e+00 0.000000e+00 -1.000000e+00
    outer loop
      vertex   6.355000e+01 1.275000e+02 2.500000e+00
      vertex   7.250000e+01 1.490000e+02 2.500000e+00
      vertex   7.250000e+01 1.200000e+02 2.500000e+00
    endloop
  endfacet
  facet normal 0.000000e+00 0.000000e+00 -1.000000e+00
    outer loop
      vertex   6.365000e+01 1.465000e+02 2.500000e+00
      vertex   6.365000e+01 1.490000e+02 2.500000e+00
      vertex   7.250000e+01 1.490000e+02 2.500000e+00
    endloop
  endfacet
  facet normal 0.000000e+00 0.000000e+00 -1.000000e+00
    outer loop
      vertex   7.250000e+01 1.200000e+02 2.500000e+00
      vertex   6.355000e+01 1.200000e+02 2.500000e+00
      vertex   6.355000e+01 1.275000e+02 2.500000e+00
    endloop
  endfacet
  facet normal -1.096517e-16 0.000000e+00 -1.000000e+00
    outer loop
      vertex   5.405000e+01 1.200000e+02 2.500000e+00
      vertex   5.000000e+01 1.221000e+02 2.500000e+00
      vertex   5.405000e+01 1.275000e+02 2.500000e+00
    endloop
  endfacet
  facet normal -7.310115e-17 -2.741288e-17 -1.000000e+00
    outer loop
      vertex   5.405000e+01 1.275000e+02 2.500000e+00
      vertex   5.000000e+01 1.221000e+02 2.500000e+00
      vertex   4.985000e+01 1.225000e+02 2.500000e+00
    endloop
  endfacet
  facet normal -5.514535e-23 -8.881780e-17 -1.000000e+00
    outer loop
      vertex   5.405000e+01 1.275000e+02 2.500000e+00
      vertex   4.985000e+01 1.225000e+02 2.500000e+00
      vertex   4.700000e+01 1.225000e+02 2.500000e+00
    endloop
  endfacet
  facet normal 0.000000e+00 2.114710e-16 -1.000000e+00
    outer loop
      vertex   5.405000e+01 1.200000e+02 2.500000e+00
      vertex   5.000000e+01 1.200000e+02 2.500000e+00
      vertex   5.000000e+01 1.221000e+02 2.500000e+00
    endloop
  endfacet
  facet normal 0.000000e+00 0.000000e+00 -1.000000e+00
    outer loop
      vertex   5.000000e+01 1.221000e+02 2.500000e+00
      vertex   4.985000e+01 1.221000e+02 2.500000e+00
      vertex   4.985000e+01 1.225000e+02 2.500000e+00
    endloop
  endfacet
  facet normal -6.299137e-17 6.518366e-24 -1.000000e+00
    outer loop
      vertex   4.700000e+01 1.225000e+02 2.500000e+00
      vertex   4.700000e+01 1.375000e+02 2.500000e+00
      vertex   5.405000e+01 1.275000e+02 2.500000e+00
    endloop
  endfacet
  facet normal 0.000000e+00 4.440892e-17 -1.000000e+00
    outer loop
      vertex   5.405000e+01 1.275000e+02 2.500000e+00
      vertex   4.700000e+01 1.375000e+02 2.500000e+00
      vertex   5.000000e+01 1.375000e+02 2.500000e+00
    endloop
  endfacet
  facet normal -1.000000e+00 0.000000e+00 0.000000e+00
    outer loop
      vertex   7.050000e+01 1.295000e+02 7.500000e+00
      vertex   7.050000e+01 1.430000e+02 7.500000e+00
      vertex   7.050000e+01 1.295000e+02 4.000000e+00
    endloop
  endfacet
  facet normal -1.000000e+00 0.000000e+00 0.000000e+00
    outer loop
      vertex   7.050000e+01 1.295000e+02 4.000000e+00
      vertex   7.050000e+01 1.430000e+02 7.500000e+00
      vertex   7.050000e+01 1.430000e+02 4.000000e+00
    endloop
  endfacet
  facet normal 1.000000e+00 4.967052e-08 -0.000000e+00
    outer loop
      vertex   4.985000e+01 1.225000e+02 6.000000e+00
      vertex   4.985000e+01 1.275000e+02 6.000000e+00
      vertex   4.985000e+01 1.225000e+02 7.500000e+00
    endloop
  endfacet
  facet normal 1.000000e+00 4.967052e-08 2.352455e-24
    outer loop
      vertex   4.985000e+01 1.225000e+02 7.500000e+00
      vertex   4.985000e+01 1.275000e+02 6.000000e+00
      vertex   4.985000e+01 1.275000e+02 7.500000e+00
    endloop
  endfacet
  facet normal -1.000000e+00 1.034803e-07 0.000000e+00
    outer loop
      vertex   4.700000e+01 1.375000e+02 6.000000e+00
      vertex   4.700000e+01 1.225000e+02 6.000000e+00
      vertex   4.700000e+01 1.375000e+02 7.500000e+00
    endloop
  endfacet
  facet normal -1.000000e+00 1.034803e-07 -4.705556e-23
    outer loop
      vertex   4.700000e+01 1.375000e+02 7.500000e+00
      vertex   4.700000e+01 1.225000e+02 6.000000e+00
      vertex   4.700000e+01 1.225000e+02 7.500000e+00
    endloop
  endfacet
  facet normal -0.000000e+00 0.000000e+00 1.000000e+00
    outer loop
      vertex   7.050000e+01 1.295000e+02 7.500000e+00
      vertex   7.250000e+01 1.275000e+02 7.500000e+00
      vertex   7.050000e+01 1.430000e+02 7.500000e+00
    endloop
  endfacet
  facet normal -0.000000e+00 0.000000e+00 1.000000e+00
    outer loop
      vertex   7.050000e+01 1.430000e+02 7.500000e+00
      vertex   7.250000e+01 1.275000e+02 7.500000e+00
      vertex   7.250000e+01 1.490000e+02 7.500000e+00
    endloop
  endfacet
  facet normal 0.000000e+00 -0.000000e+00 1.000000e+00
    outer loop
      vertex   7.050000e+01 1.430000e+02 7.500000e+00
      vertex   7.250000e+01 1.490000e+02 7.500000e+00
      vertex   6.850000e+01 1.490000e+02 7.500000e+00
    endloop
  endfacet
  facet normal 0.000000e+00 0.000000e+00 1.000000e+00
    outer loop
      vertex   7.050000e+01 1.295000e+02 7.500000e+00
      vertex   5.200000e+01 1.295000e+02 7.500000e+00
      vertex   7.250000e+01 1.275000e+02 7.500000e+00
    endloop
  endfacet
  facet normal 0.000000e+00 0.000000e+00 1.000000e+00
    outer loop
      vertex   7.250000e+01 1.275000e+02 7.500000e+00
      vertex   5.200000e+01 1.295000e+02 7.500000e+00
      vertex   4.985000e+01 1.275000e+02 7.500000e+00
    endloop
  endfacet
  facet normal 0.000000e+00 -0.000000e+00 1.000000e+00
    outer loop
      vertex   4.985000e+01 1.275000e+02 7.500000e+00
      vertex   5.200000e+01 1.295000e+02 7.500000e+00
      vertex   4.700000e+01 1.375000e+02 7.500000e+00
    endloop
  endfacet
  facet normal 0.000000e+00 0.000000e+00 1.000000e+00
    outer loop
      vertex   4.985000e+01 1.275000e+02 7.500000e+00
      vertex   4.700000e+01 1.375000e+02 7.500000e+00
      vertex   4.700000e+01 1.225000e+02 7.500000e+00
    endloop
  endfacet
  facet normal -0.000000e+00 0.000000e+00 1.000000e+00
    outer loop
      vertex   4.700000e+01 1.375000e+02 7.500000e+00
      vertex   5.200000e+01 1.295000e+02 7.500000e+00
      vertex   5.000000e+01 1.375000e+02 7.500000e+00
    endloop
  endfacet
  facet normal -0.000000e+00 0.000000e+00 1.000000e+00
    outer loop
      vertex   5.000000e+01 1.375000e+02 7.500000e+00
      vertex   5.200000e+01 1.295000e+02 7.500000e+00
      vertex   5.200000e+01 1.430000e+02 7.500000e+00
    endloop
  endfacet
  facet normal 0.000000e+00 0.000000e+00 1.000000e+00
    outer loop
      vertex   5.000000e+01 1.375000e+02 7.500000e+00
      vertex   5.200000e+01 1.430000e+02 7.500000e+00
      vertex   5.000000e+01 1.490000e+02 7.500000e+00
    endloop
  endfacet
  facet normal -0.000000e+00 0.000000e+00 1.000000e+00
    outer loop
      vertex   5.000000e+01 1.490000e+02 7.500000e+00
      vertex   5.200000e+01 1.430000e+02 7.500000e+00
      vertex   5.395000e+01 1.490000e+02 7.500000e+00
    endloop
  endfacet
  facet normal 0.000000e+00 0.000000e+00 1.000000e+00
    outer loop
      vertex   5.395000e+01 1.490000e+02 7.500000e+00
      vertex   5.200000e+01 1.430000e+02 7.500000e+00
      vertex   5.395000e+01 1.430000e+02 7.500000e+00
    endloop
  endfacet
  facet normal -0.000000e+00 0.000000e+00 1.000000e+00
    outer loop
      vertex   4.700000e+01 1.225000e+02 7.500000e+00
      vertex   4.985000e+01 1.225000e+02 7.500000e+00
      vertex   4.985000e+01 1.275000e+02 7.500000e+00
    endloop
  endfacet
  facet normal 0.000000e+00 0.000000e+00 1.000000e+00
    outer loop
      vertex   6.850000e+01 1.490000e+02 7.500000e+00
      vertex   6.850000e+01 1.430000e+02 7.500000e+00
      vertex   7.050000e+01 1.430000e+02 7.500000e+00
    endloop
  endfacet
  facet normal -1.000000e+00 6.208817e-07 -5.882173e-21
    outer loop
      vertex   4.985000e+01 1.225000e+02 4.000000e+00
      vertex   4.985000e+01 1.225000e+02 2.500000e+00
      vertex   4.985000e+01 1.221000e+02 4.000000e+00
    endloop
  endfacet
  facet normal -1.000000e+00 6.208817e-07 0.000000e+00
    outer loop
      vertex   4.985000e+01 1.221000e+02 4.000000e+00
      vertex   4.985000e+01 1.225000e+02 2.500000e+00
      vertex   4.985000e+01 1.221000e+02 2.500000e+00
    endloop
  endfacet
  facet normal -6.208817e-07 -1.000000e+00 9.473903e-15
    outer loop
      vertex   4.985000e+01 1.225000e+02 2.500000e+00
      vertex   4.985000e+01 1.225000e+02 4.000000e+00
      vertex   4.700000e+01 1.225000e+02 2.500000e+00
    endloop
  endfacet
  facet normal -6.208817e-07 -1.000000e+00 0.000000e+00
    outer loop
      vertex   4.700000e+01 1.225000e+02 2.500000e+00
      vertex   4.985000e+01 1.225000e+02 4.000000e+00
      vertex   4.700000e+01 1.225000e+02 6.000000e+00
    endloop
  endfacet
  facet normal -6.208817e-07 -1.000000e+00 -7.105427e-15
    outer loop
      vertex   4.700000e+01 1.225000e+02 6.000000e+00
      vertex   4.985000e+01 1.225000e+02 4.000000e+00
      vertex   4.985000e+01 1.225000e+02 6.000000e+00
    endloop
  endfacet
  facet normal -6.208817e-07 -1.000000e+00 -5.242268e-23
    outer loop
      vertex   4.700000e+01 1.225000e+02 6.000000e+00
      vertex   4.985000e+01 1.225000e+02 6.000000e+00
      vertex   4.985000e+01 1.225000e+02 7.500000e+00
    endloop
  endfacet
  facet normal -6.208817e-07 -1.000000e+00 -5.242268e-23
    outer loop
      vertex   4.985000e+01 1.225000e+02 7.500000e+00
      vertex   4.700000e+01 1.225000e+02 7.500000e+00
      vertex   4.700000e+01 1.225000e+02 6.000000e+00
    endloop
  endfacet
  facet normal 0.000000e+00 1.000000e+00 0.000000e+00
    outer loop
      vertex   4.700000e+01 1.375000e+02 2.500000e+00
      vertex   4.700000e+01 1.375000e+02 6.000000e+00
      vertex   5.000000e+01 1.375000e+02 2.500000e+00
    endloop
  endfacet
  facet normal 0.000000e+00 1.000000e+00 -0.000000e+00
    outer loop
      vertex   5.000000e+01 1.375000e+02 2.500000e+00
      vertex   4.700000e+01 1.375000e+02 6.000000e+00
      vertex   5.000000e+01 1.375000e+02 7.500000e+00
    endloop
  endfacet
  facet normal 0.000000e+00 1.000000e+00 0.000000e+00
    outer loop
      vertex   5.000000e+01 1.375000e+02 7.500000e+00
      vertex   4.700000e+01 1.375000e+02 6.000000e+00
      vertex   4.700000e+01 1.375000e+02 7.500000e+00
    endloop
  endfacet
  facet normal -1.000000e+00 1.034803e-07 0.000000e+00
    outer loop
      vertex   4.700000e+01 1.225000e+02 6.000000e+00
      vertex   4.700000e+01 1.375000e+02 6.000000e+00
      vertex   4.700000e+01 1.225000e+02 2.500000e+00
    endloop
  endfacet
  facet normal -1.000000e+00 1.034803e-07 -2.016667e-23
    outer loop
      vertex   4.700000e+01 1.225000e+02 2.500000e+00
      vertex   4.700000e+01 1.375000e+02 6.000000e+00
      vertex   4.700000e+01 1.375000e+02 2.500000e+00
    endloop
  endfacet
  facet normal -0.000000e+00 -1.000000e+00 -0.000000e+00
    outer loop
      vertex   5.395000e+01 1.430000e+02 7.500000e+00
      vertex   5.200000e+01 1.430000e+02 7.500000e+00
      vertex   5.395000e+01 1.430000e+02 4.000000e+00
    endloop
  endfacet
  facet normal 0.000000e+00 -1.000000e+00 0.000000e+00
    outer loop
      vertex   5.395000e+01 1.430000e+02 4.000000e+00
      vertex   5.200000e+01 1.430000e+02 7.500000e+00
      vertex   5.200000e+01 1.430000e+02 4.000000e+00
    endloop
  endfacet
  facet normal 0.000000e+00 1.000000e+00 0.000000e+00
    outer loop
      vertex   5.000000e+01 1.490000e+02 2.500000e+00
      vertex   5.000000e+01 1.490000e+02 7.500000e+00
      vertex   5.395000e+01 1.490000e+02 2.500000e+00
    endloop
  endfacet
  facet normal 0.000000e+00 1.000000e+00 -0.000000e+00
    outer loop
      vertex   5.395000e+01 1.490000e+02 2.500000e+00
      vertex   5.000000e+01 1.490000e+02 7.500000e+00
      vertex   5.395000e+01 1.490000e+02 7.500000e+00
    endloop
  endfacet
  facet normal -0.000000e+00 1.000000e+00 0.000000e+00
    outer loop
      vertex   6.365000e+01 1.490000e+02 4.000000e+00
      vertex   6.850000e+01 1.490000e+02 4.000000e+00
      vertex   6.365000e+01 1.490000e+02 2.500000e+00
    endloop
  endfacet
  facet normal 0.000000e+00 1.000000e+00 0.000000e+00
    outer loop
      vertex   6.365000e+01 1.490000e+02 2.500000e+00
      vertex   6.850000e+01 1.490000e+02 4.000000e+00
      vertex   7.250000e+01 1.490000e+02 2.500000e+00
    endloop
  endfacet
  facet normal 0.000000e+00 1.000000e+00 -0.000000e+00
    outer loop
      vertex   7.250000e+01 1.490000e+02 2.500000e+00
      vertex   6.850000e+01 1.490000e+02 4.000000e+00
      vertex   7.250000e+01 1.490000e+02 7.500000e+00
    endloop
  endfacet
  facet normal 0.000000e+00 1.000000e+00 0.000000e+00
    outer loop
      vertex   7.250000e+01 1.490000e+02 7.500000e+00
      vertex   6.850000e+01 1.490000e+02 4.000000e+00
      vertex   6.850000e+01 1.490000e+02 7.500000e+00
    endloop
  endfacet
  facet normal -1.000000e+00 0.000000e+00 0.000000e+00
    outer loop
      vertex   5.000000e+01 1.375000e+02 2.500000e+00
      vertex   5.000000e+01 1.375000e+02 7.500000e+00
      vertex   5.000000e+01 1.490000e+02 2.500000e+00
    endloop
  endfacet
  facet normal -1.000000e+00 0.000000e+00 0.000000e+00
    outer loop
      vertex   5.000000e+01 1.490000e+02 2.500000e+00
      vertex   5.000000e+01 1.375000e+02 7.500000e+00
      vertex   5.000000e+01 1.490000e+02 7.500000e+00
    endloop
  endfacet
  facet normal 0.000000e+00 -1.000000e+00 0.000000e+00
    outer loop
      vertex   5.000000e+01 1.221000e+02 2.500000e+00
      vertex   5.000000e+01 1.221000e+02 4.000000e+00
      vertex   4.985000e+01 1.221000e+02 2.500000e+00
    endloop
  endfacet
  facet normal 0.000000e+00 -1.000000e+00 0.000000e+00
    outer loop
      vertex   4.985000e+01 1.221000e+02 2.500000e+00
      vertex   5.000000e+01 1.221000e+02 4.000000e+00
      vertex   4.985000e+01 1.221000e+02 4.000000e+00
    endloop
  endfacet
  facet normal -0.000000e+00 0.000000e+00 1.000000e+00
    outer loop
      vertex   5.200000e+01 1.430000e+02 4.000000e+00
      vertex   5.200000e+01 1.295000e+02 4.000000e+00
      vertex   5.395000e+01 1.430000e+02 4.000000e+00
    endloop
  endfacet
  facet normal -0.000000e+00 0.000000e+00 1.000000e+00
    outer loop
      vertex   5.395000e+01 1.430000e+02 4.000000e+00
      vertex   5.200000e+01 1.295000e+02 4.000000e+00
      vertex   6.850000e+01 1.430000e+02 4.000000e+00
    endloop
  endfacet
  facet normal 0.000000e+00 0.000000e+00 1.000000e+00
    outer loop
      vertex   5.395000e+01 1.430000e+02 4.000000e+00
      vertex   6.850000e+01 1.430000e+02 4.000000e+00
      vertex   6.365000e+01 1.465000e+02 4.000000e+00
    endloop
  endfacet
  facet normal -0.000000e+00 0.000000e+00 1.000000e+00
    outer loop
      vertex   6.365000e+01 1.465000e+02 4.000000e+00
      vertex   6.850000e+01 1.430000e+02 4.000000e+00
      vertex   6.850000e+01 1.490000e+02 4.000000e+00
    endloop
  endfacet
  facet normal 0.000000e+00 0.000000e+00 1.000000e+00
    outer loop
      vertex   6.365000e+01 1.465000e+02 4.000000e+00
      vertex   6.850000e+01 1.490000e+02 4.000000e+00
      vertex   6.365000e+01 1.490000e+02 4.000000e+00
    endloop
  endfacet
  facet normal 0.000000e+00 0.000000e+00 1.000000e+00
    outer loop
      vertex   5.200000e+01 1.295000e+02 4.000000e+00
      vertex   7.050000e+01 1.295000e+02 4.000000e+00
      vertex   6.850000e+01 1.430000e+02 4.000000e+00
    endloop
  endfacet
  facet normal -0.000000e+00 0.000000e+00 1.000000e+00
    outer loop
      vertex   6.850000e+01 1.430000e+02 4.000000e+00
      vertex   7.050000e+01 1.295000e+02 4.000000e+00
      vertex   7.050000e+01 1.430000e+02 4.000000e+00
    endloop
  endfacet
  facet normal 0.000000e+00 0.000000e+00 1.000000e+00
    outer loop
      vertex   6.365000e+01 1.465000e+02 4.000000e+00
      vertex   5.395000e+01 1.465000e+02 4.000000e+00
      vertex   5.395000e+01 1.430000e+02 4.000000e+00
    endloop
  endfacet
  facet normal 0.000000e+00 1.000000e+00 -0.000000e+00
    outer loop
      vertex   7.050000e+01 1.295000e+02 4.000000e+00
      vertex   5.200000e+01 1.295000e+02 4.000000e+00
      vertex   7.050000e+01 1.295000e+02 7.500000e+00
    endloop
  endfacet
  facet normal 0.000000e+00 1.000000e+00 0.000000e+00
    outer loop
      vertex   7.050000e+01 1.295000e+02 7.500000e+00
      vertex   5.200000e+01 1.295000e+02 4.000000e+00
      vertex   5.200000e+01 1.295000e+02 7.500000e+00
    endloop
  endfacet
  facet normal 1.000000e+00 0.000000e+00 0.000000e+00
    outer loop
      vertex   5.200000e+01 1.295000e+02 4.000000e+00
      vertex   5.200000e+01 1.430000e+02 4.000000e+00
      vertex   5.200000e+01 1.295000e+02 7.500000e+00
    endloop
  endfacet
  facet normal 1.000000e+00 -0.000000e+00 0.000000e+00
    outer loop
      vertex   5.200000e+01 1.295000e+02 7.500000e+00
      vertex   5.200000e+01 1.430000e+02 4.000000e+00
      vertex   5.200000e+01 1.430000e+02 7.500000e+00
    endloop
  endfacet
  facet normal 0.000000e+00 0.000000e+00 1.000000e+00
    outer loop
      vertex   4.985000e+01 1.221000e+02 4.000000e+00
      vertex   5.000000e+01 1.221000e+02 4.000000e+00
      vertex   4.985000e+01 1.225000e+02 4.000000e+00
    endloop
  endfacet
  facet normal -0.000000e+00 0.000000e+00 1.000000e+00
    outer loop
      vertex   4.985000e+01 1.225000e+02 4.000000e+00
      vertex   5.000000e+01 1.221000e+02 4.000000e+00
      vertex   5.405000e+01 1.275000e+02 4.000000e+00
    endloop
  endfacet
  facet normal 0.000000e+00 -0.000000e+00 1.000000e+00
    outer loop
      vertex   4.985000e+01 1.225000e+02 4.000000e+00
      vertex   5.405000e+01 1.275000e+02 4.000000e+00
      vertex   4.985000e+01 1.275000e+02 4.000000e+00
    endloop
  endfacet
  facet normal 0.000000e+00 0.000000e+00 1.000000e+00
    outer loop
      vertex   5.000000e+01 1.200000e+02 4.000000e+00
      vertex   5.405000e+01 1.200000e+02 4.000000e+00
      vertex   5.000000e+01 1.221000e+02 4.000000e+00
    endloop
  endfacet
  facet normal -0.000000e+00 0.000000e+00 1.000000e+00
    outer loop
      vertex   5.000000e+01 1.221000e+02 4.000000e+00
      vertex   5.405000e+01 1.200000e+02 4.000000e+00
      vertex   5.405000e+01 1.275000e+02 4.000000e+00
    endloop
  endfacet
  facet normal 0.000000e+00 -1.000000e+00 0.000000e+00
    outer loop
      vertex   6.355000e+01 1.275000e+02 2.500000e+00
      vertex   6.355000e+01 1.275000e+02 4.000000e+00
      vertex   5.405000e+01 1.275000e+02 2.500000e+00
    endloop
  endfacet
  facet normal 0.000000e+00 -1.000000e+00 0.000000e+00
    outer loop
      vertex   5.405000e+01 1.275000e+02 2.500000e+00
      vertex   6.355000e+01 1.275000e+02 4.000000e+00
      vertex   5.405000e+01 1.275000e+02 4.000000e+00
    endloop
  endfacet
  facet normal 0.000000e+00 -1.000000e+00 1.065433e-06
    outer loop
      vertex   5.405000e+01 1.275000e+02 4.000000e+00
      vertex   6.355000e+01 1.275000e+02 4.000000e+00
      vertex   4.985000e+01 1.275000e+02 6.000000e+00
    endloop
  endfacet
  facet normal -5.073491e-07 -1.000000e+00 1.764650e-23
    outer loop
      vertex   5.405000e+01 1.275000e+02 4.000000e+00
      vertex   4.985000e+01 1.275000e+02 6.000000e+00
      vertex   4.985000e+01 1.275000e+02 4.000000e+00
    endloop
  endfacet
  facet normal 2.380856e-07 -1.000000e+00 0.000000e+00
    outer loop
      vertex   7.250000e+01 1.275000e+02 4.000000e+00
      vertex   7.250000e+01 1.275000e+02 7.500000e+00
      vertex   6.355000e+01 1.275000e+02 4.000000e+00
    endloop
  endfacet
  facet normal -4.853909e-08 -1.000000e+00 7.329403e-07
    outer loop
      vertex   6.355000e+01 1.275000e+02 4.000000e+00
      vertex   7.250000e+01 1.275000e+02 7.500000e+00
      vertex   4.985000e+01 1.275000e+02 6.000000e+00
    endloop
  endfacet
  facet normal -0.000000e+00 -1.000000e+00 0.000000e+00
    outer loop
      vertex   7.250000e+01 1.275000e+02 7.500000e+00
      vertex   4.985000e+01 1.275000e+02 7.500000e+00
      vertex   4.985000e+01 1.275000e+02 6.000000e+00
    endloop
  endfacet
  facet normal 0.000000e+00 0.000000e+00 1.000000e+00
    outer loop
      vertex   7.250000e+01 1.275000e+02 4.000000e+00
      vertex   6.355000e+01 1.275000e+02 4.000000e+00
      vertex   7.250000e+01 1.200000e+02 4.000000e+00
    endloop
  endfacet
  facet normal 0.000000e+00 0.000000e+00 1.000000e+00
    outer loop
      vertex   7.250000e+01 1.200000e+02 4.000000e+00
      vertex   6.355000e+01 1.275000e+02 4.000000e+00
      vertex   6.355000e+01 1.200000e+02 4.000000e+00
    endloop
  endfacet
  facet normal -1.000000e+00 0.000000e+00 0.000000e+00
    outer loop
      vertex   5.000000e+01 1.200000e+02 2.500000e+00
      vertex   5.000000e+01 1.200000e+02 4.000000e+00
      vertex   5.000000e+01 1.221000e+02 2.500000e+00
    endloop
  endfacet
  facet normal -1.000000e+00 0.000000e+00 0.000000e+00
    outer loop
      vertex   5.000000e+01 1.221000e+02 2.500000e+00
      vertex   5.000000e+01 1.200000e+02 4.000000e+00
      vertex   5.000000e+01 1.221000e+02 4.000000e+00
    endloop
  endfacet
  facet normal 1.000000e+00 4.967052e-08 3.529303e-22
    outer loop
      vertex   4.985000e+01 1.225000e+02 4.000000e+00
      vertex   4.985000e+01 1.275000e+02 4.000000e+00
      vertex   4.985000e+01 1.225000e+02 6.000000e+00
    endloop
  endfacet
  facet normal 1.000000e+00 4.967052e-08 1.764342e-24
    outer loop
      vertex   4.985000e+01 1.225000e+02 6.000000e+00
      vertex   4.985000e+01 1.275000e+02 4.000000e+00
      vertex   4.985000e+01 1.275000e+02 6.000000e+00
    endloop
  endfacet
  facet normal -1.000000e+00 0.000000e+00 0.000000e+00
    outer loop
      vertex   6.850000e+01 1.490000e+02 4.000000e+00
      vertex   6.850000e+01 1.430000e+02 4.000000e+00
      vertex   6.850000e+01 1.490000e+02 7.500000e+00
    endloop
  endfacet
  facet normal -1.000000e+00 -0.000000e+00 0.000000e+00
    outer loop
      vertex   6.850000e+01 1.490000e+02 7.500000e+00
      vertex   6.850000e+01 1.430000e+02 4.000000e+00
      vertex   6.850000e+01 1.430000e+02 7.500000e+00
    endloop
  endfacet
  facet normal 0.000000e+00 -1.000000e+00 0.000000e+00
    outer loop
      vertex   6.850000e+01 1.430000e+02 4.000000e+00
      vertex   7.050000e+01 1.430000e+02 4.000000e+00
      vertex   6.850000e+01 1.430000e+02 7.500000e+00
    endloop
  endfacet
  facet normal 0.000000e+00 -1.000000e+00 0.000000e+00
    outer loop
      vertex   6.850000e+01 1.430000e+02 7.500000e+00
      vertex   7.050000e+01 1.430000e+02 4.000000e+00
      vertex   7.050000e+01 1.430000e+02 7.500000e+00
    endloop
  endfacet
  facet normal 1.000000e+00 -0.000000e+00 0.000000e+00
    outer loop
      vertex   7.250000e+01 1.200000e+02 4.000000e+00
      vertex   7.250000e+01 1.200000e+02 2.500000e+00
      vertex   7.250000e+01 1.275000e+02 4.000000e+00
    endloop
  endfacet
  facet normal 1.000000e+00 0.000000e+00 0.000000e+00
    outer loop
      vertex   7.250000e+01 1.275000e+02 4.000000e+00
      vertex   7.250000e+01 1.200000e+02 2.500000e+00
      vertex   7.250000e+01 1.490000e+02 2.500000e+00
    endloop
  endfacet
  facet normal 1.000000e+00 -0.000000e+00 0.000000e+00
    outer loop
      vertex   7.250000e+01 1.275000e+02 4.000000e+00
      vertex   7.250000e+01 1.490000e+02 2.500000e+00
      vertex   7.250000e+01 1.490000e+02 7.500000e+00
    endloop
  endfacet
  facet normal 1.000000e+00 0.000000e+00 0.000000e+00
    outer loop
      vertex   7.250000e+01 1.490000e+02 7.500000e+00
      vertex   7.250000e+01 1.275000e+02 7.500000e+00
      vertex   7.250000e+01 1.275000e+02 4.000000e+00
    endloop
  endfacet
  facet normal 0.000000e+00 -1.000000e+00 0.000000e+00
    outer loop
      vertex   5.000000e+01 1.200000e+02 2.500000e+00
      vertex   5.405000e+01 1.200000e+02 2.500000e+00
      vertex   5.000000e+01 1.200000e+02 4.000000e+00
    endloop
  endfacet
  facet normal 0.000000e+00 -1.000000e+00 0.000000e+00
    outer loop
      vertex   5.000000e+01 1.200000e+02 4.000000e+00
      vertex   5.405000e+01 1.200000e+02 2.500000e+00
      vertex   5.405000e+01 1.200000e+02 4.000000e+00
    endloop
  endfacet
  facet normal -1.997921e-07 -1.000000e+00 -1.192093e-06
    outer loop
      vertex   6.355000e+01 1.200000e+02 2.500000e+00
      vertex   7.250000e+01 1.200000e+02 2.500000e+00
      vertex   6.355000e+01 1.200000e+02 4.000000e+00
    endloop
  endfacet
  facet normal 0.000000e+00 -1.000000e+00 0.000000e+00
    outer loop
      vertex   6.355000e+01 1.200000e+02 4.000000e+00
      vertex   7.250000e+01 1.200000e+02 2.500000e+00
      vertex   7.250000e+01 1.200000e+02 4.000000e+00
    endloop
  endfacet
  facet normal -1.000000e+00 0.000000e+00 0.000000e+00
    outer loop
      vertex   6.355000e+01 1.275000e+02 2.500000e+00
      vertex   6.355000e+01 1.200000e+02 2.500000e+00
      vertex   6.355000e+01 1.275000e+02 4.000000e+00
    endloop
  endfacet
  facet normal -1.000000e+00 -0.000000e+00 0.000000e+00
    outer loop
      vertex   6.355000e+01 1.275000e+02 4.000000e+00
      vertex   6.355000e+01 1.200000e+02 2.500000e+00
      vertex   6.355000e+01 1.200000e+02 4.000000e+00
    endloop
  endfacet
  facet normal 1.000000e+00 0.000000e+00 0.000000e+00
    outer loop
      vertex   5.405000e+01 1.200000e+02 2.500000e+00
      vertex   5.405000e+01 1.275000e+02 2.500000e+00
      vertex   5.405000e+01 1.200000e+02 4.000000e+00
    endloop
  endfacet
  facet normal 1.000000e+00 -0.000000e+00 0.000000e+00
    outer loop
      vertex   5.405000e+01 1.200000e+02 4.000000e+00
      vertex   5.405000e+01 1.275000e+02 2.500000e+00
      vertex   5.405000e+01 1.275000e+02 4.000000e+00
    endloop
  endfacet
endsolid
